# xmcd CD database file
#
# Track frame offsets:
#	150
#	26728
#	47470
#	68175
#	92302
#	118007
#	141263
#	165302
#	185205
#	204624
#
# Disc length: 2975 seconds
#
# Revision: 0
# Processed by: cddbd v1.5.2PL0 Copyright (c) Steve Scherf et al.
# Submitted via: CDex 1.51
#
DISCID=870b9d0a
DTITLE=Ragweed - New Orleans, June 2003
DYEAR=2003
DGENRE=Blues
TTITLE0=Mole in the Ground
TTITLE1=Liza Jane
TTITLE2=K.C.S Escape
TTITLE3=Cinnamin
TTITLE4=Keep Your Lamp Trimmed and Burnin
TTITLE5=Lil Bit
TTITLE6=Edgemont Station
TTITLE7=Caterina
TTITLE8=Ali
TTITLE9=Untitled
EXTD=YEAR: 2003
EXTT0=
EXTT1=
EXTT2=
EXTT3=
EXTT4=
EXTT5=
EXTT6=
EXTT7=
EXTT8=
EXTT9=
PLAYORDER=
